<svg xmlns="http://www.w3.org/2000/svg" viewBox="0 0 1200 720" role="img" aria-labelledby="title desc">
  <title id="title">Climate and cities abstract cover</title>
  <desc id="desc">Abstract city blocks, climate path, and green transition.</desc>
  <rect width="1200" height="720" fill="#f4f8f5"/>
  <path d="M0 510 C230 430 390 510 580 440 S900 250 1200 320 V720 H0 Z" fill="#dcefe8"/>
  <g fill="#174e78" opacity=".86">
    <rect x="160" y="330" width="80" height="230" rx="8"/>
    <rect x="270" y="250" width="95" height="310" rx="8"/>
    <rect x="400" y="380" width="82" height="180" rx="8"/>
    <rect x="760" y="295" width="105" height="265" rx="8"/>
    <rect x="895" y="210" width="90" height="350" rx="8"/>
  </g>
  <g fill="#fff" opacity=".62">
    <rect x="182" y="365" width="20" height="20" rx="3"/>
    <rect x="300" y="290" width="22" height="22" rx="3"/>
    <rect x="428" y="420" width="20" height="20" rx="3"/>
    <rect x="790" y="335" width="22" height="22" rx="3"/>
    <rect x="925" y="250" width="20" height="20" rx="3"/>
  </g>
  <path d="M130 575 C310 520 410 625 560 535 S790 315 1040 360" fill="none" stroke="#2d6f9f" stroke-width="10" stroke-linecap="round"/>
  <circle cx="1040" cy="360" r="54" fill="#2d6f9f" opacity=".18"/>
  <path d="M1030 360 C1040 326 1074 318 1100 333 C1086 364 1058 383 1030 360 Z" fill="#2d6f9f"/>
</svg>
