<svg xmlns="http://www.w3.org/2000/svg" viewBox="0 0 1200 720" role="img" aria-labelledby="title desc">
  <title id="title">Corporate sustainability abstract cover</title>
  <desc id="desc">Abstract lines and bars suggesting ESG performance and market value.</desc>
  <rect width="1200" height="720" fill="#eef6f4"/>
  <path d="M0 510 C220 440 290 610 480 530 S760 310 1200 390 V720 H0 Z" fill="#d8ebe7"/>
  <path d="M0 160 C180 210 300 80 500 130 S780 250 1200 120 V0 H0 Z" fill="#f8fbf9"/>
  <g fill="none" stroke="#2d6f9f" stroke-width="8" stroke-linecap="round" opacity=".72">
    <path d="M160 500 L330 410 L500 455 L690 300 L910 245"/>
    <path d="M160 555 L330 500 L500 510 L690 430 L910 360" opacity=".35"/>
  </g>
  <g fill="#174e78" opacity=".88">
    <rect x="170" y="310" width="58" height="210" rx="8"/>
    <rect x="300" y="245" width="58" height="275" rx="8"/>
    <rect x="430" y="350" width="58" height="170" rx="8"/>
    <rect x="560" y="215" width="58" height="305" rx="8"/>
  </g>
  <circle cx="910" cy="245" r="58" fill="#2d6f9f" opacity=".18"/>
  <circle cx="910" cy="245" r="16" fill="#2d6f9f"/>
</svg>
